<mxfile host="app.diagrams.net" modified="2023-11-11T15:24:22.689Z" agent="Mozilla/5.0 (X11; Linux x86_64) AppleWebKit/537.36 (KHTML, like Gecko) Chrome/119.0.0.0 Safari/537.36" etag="CRZv1setayeGkyB42jAK" version="22.1.0" type="github">
  <diagram name="Page-1" id="MYXDUYMXQNMbcBIb65oL">
    <mxGraphModel dx="724" dy="412" grid="1" gridSize="10" guides="1" tooltips="1" connect="1" arrows="1" fold="1" page="1" pageScale="1" pageWidth="850" pageHeight="1100" math="0" shadow="0">
      <root>
        <mxCell id="0" />
        <mxCell id="1" parent="0" />
        <mxCell id="t2fxS2QMMt-w14Pt5QQU-1" value="SceneNode" style="swimlane;fontStyle=1;align=center;verticalAlign=top;childLayout=stackLayout;horizontal=1;startSize=26;horizontalStack=0;resizeParent=1;resizeParentMax=0;resizeLast=0;collapsible=1;marginBottom=0;whiteSpace=wrap;html=1;" vertex="1" parent="1">
          <mxGeometry x="150" y="230" width="330" height="486" as="geometry" />
        </mxCell>
        <mxCell id="t2fxS2QMMt-w14Pt5QQU-2" value="+ typedef unique_ptr&amp;lt;SceneNode&amp;gt; Ptr" style="text;strokeColor=none;fillColor=none;align=left;verticalAlign=top;spacingLeft=4;spacingRight=4;overflow=hidden;rotatable=0;points=[[0,0.5],[1,0.5]];portConstraint=eastwest;whiteSpace=wrap;html=1;" vertex="1" parent="t2fxS2QMMt-w14Pt5QQU-1">
          <mxGeometry y="26" width="330" height="26" as="geometry" />
        </mxCell>
        <mxCell id="t2fxS2QMMt-w14Pt5QQU-5" value="- mParent: SceneNode*" style="text;strokeColor=none;fillColor=none;align=left;verticalAlign=top;spacingLeft=4;spacingRight=4;overflow=hidden;rotatable=0;points=[[0,0.5],[1,0.5]];portConstraint=eastwest;whiteSpace=wrap;html=1;" vertex="1" parent="t2fxS2QMMt-w14Pt5QQU-1">
          <mxGeometry y="52" width="330" height="26" as="geometry" />
        </mxCell>
        <mxCell id="t2fxS2QMMt-w14Pt5QQU-9" value="- mChildren: vector&amp;lt;Ptr&amp;gt;" style="text;strokeColor=none;fillColor=none;align=left;verticalAlign=top;spacingLeft=4;spacingRight=4;overflow=hidden;rotatable=0;points=[[0,0.5],[1,0.5]];portConstraint=eastwest;whiteSpace=wrap;html=1;" vertex="1" parent="t2fxS2QMMt-w14Pt5QQU-1">
          <mxGeometry y="78" width="330" height="26" as="geometry" />
        </mxCell>
        <mxCell id="t2fxS2QMMt-w14Pt5QQU-6" value="- mCategory: unsigned int" style="text;strokeColor=none;fillColor=none;align=left;verticalAlign=top;spacingLeft=4;spacingRight=4;overflow=hidden;rotatable=0;points=[[0,0.5],[1,0.5]];portConstraint=eastwest;whiteSpace=wrap;html=1;" vertex="1" parent="t2fxS2QMMt-w14Pt5QQU-1">
          <mxGeometry y="104" width="330" height="26" as="geometry" />
        </mxCell>
        <mxCell id="t2fxS2QMMt-w14Pt5QQU-3" value="" style="line;strokeWidth=1;fillColor=none;align=left;verticalAlign=middle;spacingTop=-1;spacingLeft=3;spacingRight=3;rotatable=0;labelPosition=right;points=[];portConstraint=eastwest;strokeColor=inherit;" vertex="1" parent="t2fxS2QMMt-w14Pt5QQU-1">
          <mxGeometry y="130" width="330" height="8" as="geometry" />
        </mxCell>
        <mxCell id="t2fxS2QMMt-w14Pt5QQU-17" value="+ &amp;lt;&amp;lt;explicit&amp;gt;&amp;gt; SceneNode(cat: unsigned int)" style="text;strokeColor=none;fillColor=none;align=left;verticalAlign=top;spacingLeft=4;spacingRight=4;overflow=hidden;rotatable=0;points=[[0,0.5],[1,0.5]];portConstraint=eastwest;whiteSpace=wrap;html=1;" vertex="1" parent="t2fxS2QMMt-w14Pt5QQU-1">
          <mxGeometry y="138" width="330" height="26" as="geometry" />
        </mxCell>
        <mxCell id="t2fxS2QMMt-w14Pt5QQU-4" value="+ &amp;lt;&amp;lt;virtual&amp;gt;&amp;gt; ~SceneNode()" style="text;strokeColor=none;fillColor=none;align=left;verticalAlign=top;spacingLeft=4;spacingRight=4;overflow=hidden;rotatable=0;points=[[0,0.5],[1,0.5]];portConstraint=eastwest;whiteSpace=wrap;html=1;" vertex="1" parent="t2fxS2QMMt-w14Pt5QQU-1">
          <mxGeometry y="164" width="330" height="26" as="geometry" />
        </mxCell>
        <mxCell id="t2fxS2QMMt-w14Pt5QQU-18" value="+ update(dt: sf::Time): void" style="text;strokeColor=none;fillColor=none;align=left;verticalAlign=top;spacingLeft=4;spacingRight=4;overflow=hidden;rotatable=0;points=[[0,0.5],[1,0.5]];portConstraint=eastwest;whiteSpace=wrap;html=1;" vertex="1" parent="t2fxS2QMMt-w14Pt5QQU-1">
          <mxGeometry y="190" width="330" height="26" as="geometry" />
        </mxCell>
        <mxCell id="t2fxS2QMMt-w14Pt5QQU-19" value="+ attachChild(child: Ptr): void" style="text;strokeColor=none;fillColor=none;align=left;verticalAlign=top;spacingLeft=4;spacingRight=4;overflow=hidden;rotatable=0;points=[[0,0.5],[1,0.5]];portConstraint=eastwest;whiteSpace=wrap;html=1;" vertex="1" parent="t2fxS2QMMt-w14Pt5QQU-1">
          <mxGeometry y="216" width="330" height="26" as="geometry" />
        </mxCell>
        <mxCell id="t2fxS2QMMt-w14Pt5QQU-20" value="+ getWorldTransform(): sf::Transform" style="text;strokeColor=none;fillColor=none;align=left;verticalAlign=top;spacingLeft=4;spacingRight=4;overflow=hidden;rotatable=0;points=[[0,0.5],[1,0.5]];portConstraint=eastwest;whiteSpace=wrap;html=1;" vertex="1" parent="t2fxS2QMMt-w14Pt5QQU-1">
          <mxGeometry y="242" width="330" height="26" as="geometry" />
        </mxCell>
        <mxCell id="t2fxS2QMMt-w14Pt5QQU-21" value="+ getWorldPosition(): sf::Vector2f" style="text;strokeColor=none;fillColor=none;align=left;verticalAlign=top;spacingLeft=4;spacingRight=4;overflow=hidden;rotatable=0;points=[[0,0.5],[1,0.5]];portConstraint=eastwest;whiteSpace=wrap;html=1;" vertex="1" parent="t2fxS2QMMt-w14Pt5QQU-1">
          <mxGeometry y="268" width="330" height="26" as="geometry" />
        </mxCell>
        <mxCell id="t2fxS2QMMt-w14Pt5QQU-23" value="+ onCommand(cmd: const Command&amp;amp;, dt: sf::Time): void" style="text;strokeColor=none;fillColor=none;align=left;verticalAlign=top;spacingLeft=4;spacingRight=4;overflow=hidden;rotatable=0;points=[[0,0.5],[1,0.5]];portConstraint=eastwest;whiteSpace=wrap;html=1;" vertex="1" parent="t2fxS2QMMt-w14Pt5QQU-1">
          <mxGeometry y="294" width="330" height="26" as="geometry" />
        </mxCell>
        <mxCell id="t2fxS2QMMt-w14Pt5QQU-22" value="- &amp;lt;&amp;lt;virtual&amp;gt;&amp;gt; updateCurrent(dt: sf::Time): void" style="text;strokeColor=none;fillColor=none;align=left;verticalAlign=top;spacingLeft=4;spacingRight=4;overflow=hidden;rotatable=0;points=[[0,0.5],[1,0.5]];portConstraint=eastwest;whiteSpace=wrap;html=1;" vertex="1" parent="t2fxS2QMMt-w14Pt5QQU-1">
          <mxGeometry y="320" width="330" height="26" as="geometry" />
        </mxCell>
        <mxCell id="t2fxS2QMMt-w14Pt5QQU-28" value="- updateChildren(dt: sf::Time): void" style="text;strokeColor=none;fillColor=none;align=left;verticalAlign=top;spacingLeft=4;spacingRight=4;overflow=hidden;rotatable=0;points=[[0,0.5],[1,0.5]];portConstraint=eastwest;whiteSpace=wrap;html=1;" vertex="1" parent="t2fxS2QMMt-w14Pt5QQU-1">
          <mxGeometry y="346" width="330" height="26" as="geometry" />
        </mxCell>
        <mxCell id="t2fxS2QMMt-w14Pt5QQU-34" value="- &amp;lt;&amp;lt;virtual, const&amp;gt;&amp;gt; draw(target: sf::RenderTarget&amp;amp;, &lt;br&gt;&lt;span style=&quot;white-space: pre;&quot;&gt;&#x9;&lt;/span&gt;&lt;span style=&quot;white-space: pre;&quot;&gt;&#x9;&lt;/span&gt;&lt;span style=&quot;white-space: pre;&quot;&gt;&#x9;&lt;/span&gt;&lt;span style=&quot;white-space: pre;&quot;&gt;&#x9;&lt;span style=&quot;white-space: pre;&quot;&gt;&#x9;&lt;/span&gt;&lt;/span&gt;states: sf::RenderStates): void" style="text;strokeColor=none;fillColor=none;align=left;verticalAlign=top;spacingLeft=4;spacingRight=4;overflow=hidden;rotatable=0;points=[[0,0.5],[1,0.5]];portConstraint=eastwest;whiteSpace=wrap;html=1;" vertex="1" parent="t2fxS2QMMt-w14Pt5QQU-1">
          <mxGeometry y="372" width="330" height="38" as="geometry" />
        </mxCell>
        <mxCell id="t2fxS2QMMt-w14Pt5QQU-35" value="- &amp;lt;&amp;lt;virtual, const&amp;gt;&amp;gt; drawCurrent(target: sf::RenderTarget&amp;amp;, &lt;br&gt;&lt;span style=&quot;white-space: pre;&quot;&gt;&#x9;&lt;/span&gt;&lt;span style=&quot;white-space: pre;&quot;&gt;&#x9;&lt;/span&gt;&lt;span style=&quot;white-space: pre;&quot;&gt;&#x9;&lt;/span&gt;&lt;span style=&quot;white-space: pre;&quot;&gt;&#x9;&lt;span style=&quot;white-space: pre;&quot;&gt;&#x9;&lt;/span&gt;&lt;/span&gt;states: sf::RenderStates): void" style="text;strokeColor=none;fillColor=none;align=left;verticalAlign=top;spacingLeft=4;spacingRight=4;overflow=hidden;rotatable=0;points=[[0,0.5],[1,0.5]];portConstraint=eastwest;whiteSpace=wrap;html=1;" vertex="1" parent="t2fxS2QMMt-w14Pt5QQU-1">
          <mxGeometry y="410" width="330" height="38" as="geometry" />
        </mxCell>
        <mxCell id="t2fxS2QMMt-w14Pt5QQU-30" value="- &amp;lt;&amp;lt;const&amp;gt;&amp;gt; drawChildren(target: sf::RenderTarget&amp;amp;, &lt;br&gt;&lt;span style=&quot;white-space: pre;&quot;&gt;&#x9;&lt;/span&gt;&lt;span style=&quot;white-space: pre;&quot;&gt;&#x9;&lt;/span&gt;&lt;span style=&quot;white-space: pre;&quot;&gt;&#x9;&lt;/span&gt;&lt;span style=&quot;white-space: pre;&quot;&gt;&#x9;&lt;span style=&quot;white-space: pre;&quot;&gt;&#x9;&lt;/span&gt;&lt;/span&gt;states: sf::RenderStates): void" style="text;strokeColor=none;fillColor=none;align=left;verticalAlign=top;spacingLeft=4;spacingRight=4;overflow=hidden;rotatable=0;points=[[0,0.5],[1,0.5]];portConstraint=eastwest;whiteSpace=wrap;html=1;" vertex="1" parent="t2fxS2QMMt-w14Pt5QQU-1">
          <mxGeometry y="448" width="330" height="38" as="geometry" />
        </mxCell>
        <mxCell id="t2fxS2QMMt-w14Pt5QQU-7" value="&lt;p style=&quot;margin:0px;margin-top:4px;text-align:center;&quot;&gt;&amp;lt;&amp;lt;enumeration&amp;gt;&amp;gt;&lt;br&gt;&lt;b&gt;CATEGORY&lt;/b&gt;&lt;/p&gt;&lt;hr&gt;&lt;p style=&quot;margin:0px;margin-left:8px;text-align:left;&quot;&gt;SceneOnGround&lt;/p&gt;&lt;p style=&quot;margin:0px;margin-left:8px;text-align:left;&quot;&gt;SceneAir&lt;/p&gt;&lt;p style=&quot;margin:0px;margin-left:8px;text-align:left;&quot;&gt;Player&lt;/p&gt;&lt;p style=&quot;margin:0px;margin-left:8px;text-align:left;&quot;&gt;Obstacle&lt;/p&gt;&lt;p style=&quot;margin:0px;margin-left:8px;text-align:left;&quot;&gt;Animal&lt;/p&gt;&lt;p style=&quot;margin:0px;margin-left:8px;text-align:left;&quot;&gt;Vehicle&lt;/p&gt;&lt;p style=&quot;margin:0px;margin-left:8px;text-align:left;&quot;&gt;TrafficLight&lt;/p&gt;" style="shape=rect;html=1;overflow=fill;whiteSpace=wrap;" vertex="1" parent="1">
          <mxGeometry x="620" y="380" width="200" height="150" as="geometry" />
        </mxCell>
        <mxCell id="t2fxS2QMMt-w14Pt5QQU-8" style="edgeStyle=orthogonalEdgeStyle;rounded=0;orthogonalLoop=1;jettySize=auto;html=1;exitX=1;exitY=0.5;exitDx=0;exitDy=0;entryX=-0.004;entryY=0.43;entryDx=0;entryDy=0;entryPerimeter=0;endArrow=open;endFill=0;dashed=1;dashPattern=8 8;" edge="1" parent="1" source="t2fxS2QMMt-w14Pt5QQU-5" target="t2fxS2QMMt-w14Pt5QQU-7">
          <mxGeometry relative="1" as="geometry" />
        </mxCell>
        <mxCell id="t2fxS2QMMt-w14Pt5QQU-15" style="edgeStyle=orthogonalEdgeStyle;rounded=0;orthogonalLoop=1;jettySize=auto;html=1;exitX=0.5;exitY=1;exitDx=0;exitDy=0;entryX=0.5;entryY=0;entryDx=0;entryDy=0;endArrow=none;endFill=0;startArrow=block;startFill=0;dashed=1;dashPattern=8 8;" edge="1" parent="1" source="t2fxS2QMMt-w14Pt5QQU-11" target="t2fxS2QMMt-w14Pt5QQU-1">
          <mxGeometry relative="1" as="geometry" />
        </mxCell>
        <mxCell id="t2fxS2QMMt-w14Pt5QQU-11" value="sf::Transformable" style="html=1;whiteSpace=wrap;" vertex="1" parent="1">
          <mxGeometry x="100" y="90" width="110" height="50" as="geometry" />
        </mxCell>
        <mxCell id="t2fxS2QMMt-w14Pt5QQU-14" style="edgeStyle=orthogonalEdgeStyle;rounded=0;orthogonalLoop=1;jettySize=auto;html=1;exitX=0.5;exitY=1;exitDx=0;exitDy=0;entryX=0.5;entryY=0;entryDx=0;entryDy=0;endArrow=none;endFill=0;dashed=1;dashPattern=8 8;startArrow=block;startFill=0;" edge="1" parent="1" source="t2fxS2QMMt-w14Pt5QQU-12" target="t2fxS2QMMt-w14Pt5QQU-1">
          <mxGeometry relative="1" as="geometry" />
        </mxCell>
        <mxCell id="t2fxS2QMMt-w14Pt5QQU-12" value="sf::Drawable" style="html=1;whiteSpace=wrap;" vertex="1" parent="1">
          <mxGeometry x="260" y="90" width="110" height="50" as="geometry" />
        </mxCell>
        <mxCell id="t2fxS2QMMt-w14Pt5QQU-16" style="edgeStyle=orthogonalEdgeStyle;rounded=0;orthogonalLoop=1;jettySize=auto;html=1;exitX=0.5;exitY=1;exitDx=0;exitDy=0;entryX=0.5;entryY=0;entryDx=0;entryDy=0;endArrow=none;endFill=0;dashed=1;dashPattern=8 8;startArrow=block;startFill=0;" edge="1" parent="1" source="t2fxS2QMMt-w14Pt5QQU-13" target="t2fxS2QMMt-w14Pt5QQU-1">
          <mxGeometry relative="1" as="geometry" />
        </mxCell>
        <mxCell id="t2fxS2QMMt-w14Pt5QQU-13" value="sf::NonCopyable" style="html=1;whiteSpace=wrap;" vertex="1" parent="1">
          <mxGeometry x="425" y="90" width="110" height="50" as="geometry" />
        </mxCell>
        <mxCell id="t2fxS2QMMt-w14Pt5QQU-24" value="sf::Time" style="html=1;whiteSpace=wrap;" vertex="1" parent="1">
          <mxGeometry x="620" y="230" width="110" height="50" as="geometry" />
        </mxCell>
        <mxCell id="t2fxS2QMMt-w14Pt5QQU-25" style="edgeStyle=orthogonalEdgeStyle;rounded=0;orthogonalLoop=1;jettySize=auto;html=1;entryX=0;entryY=0.5;entryDx=0;entryDy=0;dashed=1;dashPattern=8 8;endArrow=open;endFill=0;" edge="1" parent="1" source="t2fxS2QMMt-w14Pt5QQU-5" target="t2fxS2QMMt-w14Pt5QQU-24">
          <mxGeometry relative="1" as="geometry" />
        </mxCell>
        <mxCell id="t2fxS2QMMt-w14Pt5QQU-26" value="Command" style="html=1;whiteSpace=wrap;" vertex="1" parent="1">
          <mxGeometry x="620" y="310" width="110" height="50" as="geometry" />
        </mxCell>
        <mxCell id="t2fxS2QMMt-w14Pt5QQU-27" style="edgeStyle=orthogonalEdgeStyle;rounded=0;orthogonalLoop=1;jettySize=auto;html=1;exitX=1;exitY=0.5;exitDx=0;exitDy=0;entryX=0;entryY=0.5;entryDx=0;entryDy=0;dashed=1;dashPattern=8 8;endArrow=open;endFill=0;" edge="1" parent="1" source="t2fxS2QMMt-w14Pt5QQU-5" target="t2fxS2QMMt-w14Pt5QQU-26">
          <mxGeometry relative="1" as="geometry" />
        </mxCell>
      </root>
    </mxGraphModel>
  </diagram>
</mxfile>
